<?xml version="1.0" encoding="UTF-8" standalone="no"?>
<svg width="620.00299" height="550.65826" version="1.1" id="svg842" sodipodi:docname="bluesky.svg" inkscape:version="1.1.2 (0a00cf5339, 2022-02-04)" xmlns:inkscape="http://www.inkscape.org/namespaces/inkscape" xmlns:sodipodi="http://sodipodi.sourceforge.net/DTD/sodipodi-0.dtd" xmlns="http://www.w3.org/2000/svg" xmlns:svg="http://www.w3.org/2000/svg">
  <defs id="defs846" />
  <sodipodi:namedview id="namedview844" pagecolor="#ffffff" bordercolor="#666666" borderopacity="1.0" inkscape:pageshadow="2" inkscape:pageopacity="0.0" inkscape:pagecheckerboard="0" showgrid="false" showguides="false" inkscape:zoom="0.69073441" inkscape:cx="-73.834456" inkscape:cy="361.93361" inkscape:window-width="1198" inkscape:window-height="957" inkscape:window-x="3" inkscape:window-y="87" inkscape:window-maximized="1" inkscape:current-layer="svg842" fit-margin-top="0" fit-margin-left="0" fit-margin-right="0" fit-margin-bottom="0" width="585.00299px" height="1055.9763px" />
  <path d="M 145.72332,54.373801 C 212.21927,104.29482 283.74322,205.51387 310.00321,259.8339 336.26518,205.51787 407.78513,104.29382 474.28309,54.373801 522.26305,18.352782 600.003,-9.518229 600.003,79.168811 c 0,17.712006 -10.155,148.790059 -16.11099,170.070079 -20.70299,73.98404 -96.14393,92.85404 -163.24989,81.43303 117.29991,19.96402 147.1399,86.09204 82.69694,152.22007 -122.38992,125.59006 -175.90987,-31.51101 -189.62986,-71.76604 -2.514,-7.3797 -3.6904,-10.83199 -3.7077,-7.89639 -0.0174,-2.9357 -1.1937,0.51668 -3.70771,7.89639 -13.71397,40.25503 -67.23294,197.3601 -189.62986,71.76604 C 52.21998,416.76396 82.05896,350.63193 199.36088,330.67192 132.25292,342.09293 56.81098,323.22283 36.11099,249.23889 30.1548,227.95688 20,96.878817 20,79.168811 20,-9.518229 97.74195,18.352782 145.71991,54.373801 Z" fill="#1185fe" id="path840" style="fill:none;stroke:#ffffff;stroke-width:40;stroke-miterlimit:4;stroke-dasharray:none;stroke-opacity:1" />
</svg>
